<svg xmlns="http://www.w3.org/2000/svg" viewBox="0 0 44 44"><defs><style>.cls-1{fill:#fff;}</style></defs><title>undo</title><g id="Layer_2" data-name="Layer 2"><g id="Layer_1-2" data-name="Layer 1"><path class="cls-1" d="M44,22A22,22,0,0,1,5.07,36.07a1,1,0,0,1,.06-1.23l3.92-4a1.1,1.1,0,0,1,.72-.26.93.93,0,0,1,.66.34A14.5,14.5,0,0,0,22,36.67,14.67,14.67,0,1,0,12,11.26l3.92,4a1.77,1.77,0,0,1,.4,2,1.84,1.84,0,0,1-1.69,1.15H1.83A1.85,1.85,0,0,1,0,16.5V3.67A1.84,1.84,0,0,1,1.15,2a1.77,1.77,0,0,1,2,.4l3.72,3.7A22.27,22.27,0,0,1,22,0,22,22,0,0,1,44,22Z"/></g></g></svg>